<svg width="121" height="86" viewBox="0 0 121 86" fill="none" xmlns="http://www.w3.org/2000/svg">
<path d="M57.1227 0.149273C49.8079 1.18499 42.5189 3.95552 37.091 7.83945C35.1783 9.21177 35.0749 9.31534 35.6694 9.4966C36.0312 9.60017 37.763 10.0921 39.4948 10.61C45.2329 12.293 52.7804 15.5814 58.26 18.7403C59.5266 19.4912 60.638 20.0868 60.7414 20.0868C60.8189 20.0868 61.3359 18.5073 61.8787 16.5912L62.8867 13.0957H67.0999C69.4261 13.0957 71.3389 13.1216 71.3389 13.1734C71.3389 13.1993 70.8736 14.8564 70.305 16.8502C69.7363 18.8439 69.2711 20.6305 69.2711 20.7859C69.2711 21.0448 70.0723 21.1225 72.3986 21.1225C75.2418 21.1225 75.5003 21.1743 75.3711 21.5627C75.1384 22.3395 73.9236 27.285 73.9236 27.4403C73.9236 27.518 74.4147 27.5957 75.035 27.5957C76.0431 27.5957 76.224 27.4662 77.4389 26.0939C78.1626 25.2912 78.7312 24.4368 78.7054 24.2296C78.6795 24.0225 78.5761 22.6243 78.4727 21.1225C78.2143 17.3939 76.9219 9.88499 75.888 6.05285C75.035 2.99749 74.5439 1.44391 74.3889 1.44391C74.3372 1.44391 72.9672 1.1332 71.3389 0.7707C68.9092 0.252844 67.4876 0.0974865 63.5846 0.0198078C60.9482 -0.0319786 58.0533 0.0198078 57.1227 0.149273Z" fill="black"/>
<path d="M78.0596 3.10117C78.0596 3.17885 78.3439 4.4217 78.7058 5.8976C79.6104 9.70385 80.5668 15.7628 80.9028 19.8021C81.032 21.7181 81.213 23.3235 81.2647 23.3753C81.3164 23.4271 81.8591 23.3494 82.4795 23.2199C87.3647 22.0806 92.56 24.5146 94.7312 28.994C95.7651 31.0914 96.1528 32.8521 96.1528 35.3896C96.1528 37.0726 96.1786 37.1762 96.7473 37.1762C97.0575 37.1762 97.7036 37.4092 98.1947 37.7199L99.0736 38.2637L100.779 37.461C101.71 37.0467 102.925 36.6065 103.493 36.503L104.502 36.3217L104.346 34.4833C103.597 25.5762 95.3774 13.4324 85.8138 7.01099C82.6087 4.86189 78.0596 2.58331 78.0596 3.10117Z" fill="black"/>
<path d="M31.1461 12.8884C27.605 16.7205 24.8393 20.9152 22.9783 25.3169C21.7376 28.1911 21.7118 27.8544 23.3919 30.133C24.219 31.2464 24.555 31.4794 24.555 30.858C24.555 30.6509 24.8652 30.2366 25.227 29.9518C25.7957 29.5116 26.2868 29.408 27.8376 29.408C29.6211 29.408 29.8279 29.4598 30.5258 30.1589C31.2237 30.858 31.2753 31.0652 31.2753 32.9036C31.2753 34.9491 30.8618 36.192 30.1122 36.5027C29.8796 36.5803 28.8715 36.658 27.8893 36.658C26.3643 36.658 26.1059 36.7357 26.1059 37.0982C26.1059 37.5125 26.3643 37.5643 28.0186 37.5643C29.6987 37.5643 30.0347 37.642 30.6033 38.1857L31.2495 38.8071L33.705 37.2018C40.994 32.4634 46.6804 29.7446 54.7965 27.0777L59.3198 25.5759L59.7851 23.9705C60.0436 23.0902 60.2245 22.3393 60.1728 22.2875C60.1211 22.2616 59.1906 21.6402 58.105 20.9152C54.4605 18.5589 48.5673 15.7366 42.9067 13.6911C39.5982 12.4741 34.5063 11.0241 33.6016 11.0241C33.033 11.0241 32.516 11.4125 31.1461 12.8884Z" fill="black"/>
<path d="M63.9468 16.6429C63.7142 17.4715 63.068 19.6465 62.5511 21.5107L61.5947 24.8768L64.7998 24.9545C67.5913 25.0063 68.0049 25.084 67.8757 25.4206C67.7981 25.6277 67.4621 26.6893 67.1778 27.7509L66.6091 29.667H65.2134C64.4638 29.667 63.8435 29.7706 63.8435 29.9C63.8435 30.3143 66.7384 36.917 66.9193 36.917C66.9968 36.917 68.7028 35.2857 70.693 33.292L74.3117 29.667H72.8125C72.0113 29.667 71.3392 29.5893 71.3392 29.5116C71.3392 29.3563 72.5541 24.4107 72.7867 23.634C72.9159 23.2197 72.6574 23.1938 69.6591 23.1938C67.0744 23.1938 66.4024 23.1161 66.5057 22.8572C66.5833 22.6759 67.0485 21.0188 67.5655 19.1804C68.0824 17.3161 68.5735 15.659 68.6252 15.4777C68.7028 15.2447 68.1858 15.167 66.5574 15.167H64.3863L63.9468 16.6429Z" fill="black"/>
<path d="M81.8589 25.4467C79.4034 26.2752 77.2322 28.994 76.5343 32.0234C76.3792 32.6449 76.25 36.4511 76.25 40.4645V47.7922H75.4229C74.9576 47.7922 74.4407 47.8958 74.2856 47.9993C73.9754 48.2065 72.6313 50.5886 72.6313 50.9252C72.6313 51.0547 73.4585 51.1583 74.4407 51.1583H76.25V56.0779V60.9976H77.9301H79.6102V56.0779V51.1583H85.1674H90.7246V55.9226V60.7127L92.1203 60.8681C92.8958 60.9717 93.6453 60.9717 93.8004 60.8681C94.0072 60.7645 94.0847 56.5181 94.0847 47.0672C94.0847 32.2306 94.033 31.6609 92.6373 29.2529C91.836 27.8806 90.2852 26.5083 88.6826 25.7315C87.1059 24.9547 83.6424 24.8252 81.8589 25.4467ZM86.9767 28.3467C88.3208 28.9681 90.1042 30.9101 90.4402 32.1529C90.6212 32.7743 90.7246 36.0886 90.7246 40.4645V47.7922H85.1415H79.5843L79.6619 39.8172L79.7394 31.8681L80.4373 30.6511C81.833 28.2949 84.6763 27.2851 86.9767 28.3467Z" fill="black"/>
<path d="M83.3061 30.4438C81.7553 31.3759 81.6777 31.7643 81.6777 39.2473V45.9795H85.1671H88.6824L88.6049 39.1697C88.5273 32.3857 88.5273 32.3857 87.8811 31.5313C86.6663 29.9 84.8828 29.4857 83.3061 30.4438Z" fill="black"/>
<path d="M1.36992 26.1976C1.08559 26.6118 0.646186 27.311 0.413559 27.777L0 28.6056L1.13729 28.761C1.75763 28.8645 2.63644 28.8645 3.07585 28.761L3.87712 28.5797V44.7886V60.9976H5.5572H7.23729L7.28898 56.2592L7.36653 51.5467L10.4682 51.469C16.8267 51.3395 20.2903 49.294 22.7716 44.2967C23.8055 42.2252 23.8831 41.8368 23.9864 39.6618C24.0381 38.3413 23.9606 36.6065 23.7797 35.8038C23.0818 32.3342 20.7038 29.2788 17.447 27.544C14.5004 25.9904 13.1822 25.7574 7.21144 25.602L1.88686 25.4726L1.36992 26.1976ZM13.0271 29.4083C14.9657 30.0297 17.3695 31.5315 18.5585 32.9038C20.0318 34.561 20.497 35.9333 20.5229 38.7297C20.5487 41.0083 20.497 41.319 19.7216 42.8985C18.7394 44.8663 16.8525 46.8083 15.0691 47.5851C14.1386 47.9993 13.1305 48.1547 10.5458 48.2583L7.23729 48.3877V38.6779C7.23729 33.344 7.31483 28.8904 7.44407 28.7868C7.72839 28.4502 11.2178 28.8645 13.0271 29.4083Z" fill="black"/>
<path d="M114.582 26.8963L112.953 27.699V31.1427V34.5865H111.015H109.076V36.399V38.2115H111.015H112.953V49.4749V60.7383H114.763H116.572V49.4749V38.2115H118.64H120.733L120.656 36.4508L120.578 34.716L118.588 34.6383L116.572 34.5606V30.3142C116.572 27.9579 116.494 26.0419 116.391 26.0677C116.262 26.0677 115.46 26.4302 114.582 26.8963Z" fill="black"/>
<path d="M26.3643 33.1627V34.8457H27.7859H29.2075V33.1627V31.4796H27.7859H26.3643V33.1627Z" fill="black"/>
<path d="M44.7161 33.3956C41.7695 34.6126 38.4868 36.451 35.5144 38.4447C31.3529 41.267 31.5339 41.0858 31.5339 42.2251V43.1831L32.5161 41.9144C35.3851 38.2894 39.0038 36.5804 43.3979 36.7099L45.5949 36.7617L46.1894 34.8456C46.4995 33.784 46.7839 32.8777 46.7839 32.826C46.7839 32.6447 45.9826 32.8777 44.7161 33.3956Z" fill="black"/>
<path d="M102.511 38.859C101.968 39.0402 100.934 39.5581 100.237 39.9983L98.97 40.801L97.7552 39.8688L96.5404 38.9367L96.4628 49.6563C96.437 55.534 96.4628 60.5054 96.5404 60.6867C96.6179 60.9197 97.109 60.9974 98.1429 60.9456L99.6421 60.8679L99.6938 53.3849C99.7196 49.2679 99.823 45.5652 99.9264 45.1251C100.366 43.1313 103.131 41.3706 105.303 41.6813L106.492 41.8626L107.267 40.6456C107.681 39.9465 108.042 39.3251 108.042 39.2215C108.042 38.8849 106.207 38.4706 104.812 38.4706C104.114 38.4965 103.08 38.6519 102.511 38.859Z" fill="black"/>
<path d="M40.1409 38.9624C37.246 39.7133 34.1701 42.3544 32.7485 45.3838C31.9731 47.0151 31.9214 47.3517 31.9214 49.8633C31.9214 52.3749 31.9731 52.7115 32.7227 54.2651C35.9277 60.9972 43.9663 63.0169 49.9371 58.5892C51.8756 57.1651 52.0049 56.7508 50.8417 55.6374C50.3248 55.1713 49.8337 54.7829 49.7561 54.7829C49.6527 54.7829 48.9807 55.3008 48.2828 55.9481C44.5091 59.3401 38.3574 58.0972 35.876 53.4365C35.3849 52.5044 35.2816 51.9347 35.2816 49.8633C35.2816 47.6106 35.3591 47.274 36.057 46.0053C38.4866 41.6035 43.5786 40.5936 48.0244 43.6231L49.6527 44.7106L50.6608 43.8561C51.2036 43.3901 51.643 42.8463 51.6172 42.6392C51.5396 41.9919 48.9807 40.1017 47.3782 39.5061C45.7498 38.8588 41.7176 38.574 40.1409 38.9624Z" fill="black"/>
<path d="M57.3815 39.144C55.3137 40.0502 54.0213 42.0181 54.0213 44.2967C54.0213 47.1967 55.0035 48.2842 59.0357 49.9672C60.5607 50.5886 62.1116 51.3913 62.4476 51.702C64.4378 53.5663 63.4556 57.3726 60.7416 58.1752C59.4751 58.5636 58.3378 58.2011 56.8645 56.9324L55.7789 56.0002L54.9001 56.4663C53.5302 57.2172 53.3751 57.502 53.9955 58.3565C54.2798 58.7708 54.9777 59.4181 55.5205 59.8065C58.5705 61.9297 62.6285 61.5154 65.0065 58.8744C66.2989 57.4761 66.6866 56.4145 66.6866 54.3949C66.6866 50.9511 64.9289 48.6467 61.4654 47.6369C59.1908 46.9377 58.1569 46.3163 57.7433 45.2806C57.2522 44.1413 57.459 43.2351 58.3637 42.277C59.3976 41.1895 61.026 41.3449 62.3183 42.6395C62.9904 43.3127 63.3264 43.261 64.3603 42.4065L65.2133 41.6815L64.2052 40.5422C63.6624 39.9208 62.8353 39.2735 62.37 39.0663C61.2586 38.6261 58.5188 38.652 57.3815 39.144Z" fill="black"/>
<path d="M26.3643 50.1222V60.7383H27.9151H29.466V50.1222V39.5061H27.9151H26.3643V50.1222Z" fill="black"/>
<path d="M102.769 44.4516C102.227 44.9177 101.787 45.565 101.71 46.057C101.632 46.523 101.58 49.2159 101.632 52.0641L101.71 57.2427L102.433 54.99C103.261 52.3748 104.036 48.5168 104.294 45.6427C104.527 43.3123 104.269 43.1052 102.769 44.4516Z" fill="black"/>
<path d="M40.9682 44.1929C40.5546 44.2964 39.7533 44.7625 39.2105 45.2286C36.2122 47.7143 36.3932 52.3232 39.5983 54.6795C40.4771 55.3527 42.2864 56 42.5449 55.767C42.6224 55.6634 42.855 53.7732 43.0618 51.4946C43.2686 49.242 43.5529 46.7045 43.6822 45.85C43.8114 44.9955 43.9406 44.2188 43.9406 44.0893C43.9406 43.8304 41.9504 43.908 40.9682 44.1929Z" fill="black"/>
<path d="M22.4616 49.0868C19.6442 51.8833 19.7734 51.5726 20.3938 53.9288C22.1255 60.6868 26.4938 67.8851 32.206 73.452C36.0315 77.1806 40.1154 80.0029 44.2768 81.8413C45.931 82.5663 45.9569 82.5145 45.3882 80.5208C44.406 77.2324 42.9069 67.2636 42.9069 64.0788C42.9069 63.1467 42.881 63.1208 41.6921 62.9395C37.9442 62.4217 34.9717 60.7645 32.723 57.994L31.5857 56.6217L31.4823 59.0815C31.4048 61.4377 31.3531 61.5931 30.681 62.1886C30.0349 62.7324 29.6988 62.8101 27.9154 62.8101C26.1319 62.8101 25.7959 62.7324 25.1497 62.1886L24.426 61.5672L24.2967 54.4726L24.1675 47.4038L22.4616 49.0868Z" fill="black"/>
<path d="M45.1554 51.0029C44.9228 51.5984 44.4058 55.6118 44.5351 55.7413C44.7419 55.9484 46.6287 54.8609 47.2749 54.1877L47.8694 53.5145L46.6287 52.0904C45.9567 51.2877 45.3622 50.6404 45.3364 50.6404C45.3105 50.6404 45.233 50.7957 45.1554 51.0029Z" fill="black"/>
<path d="M81.678 57.243C81.678 61.4376 81.6522 61.5671 81.0577 62.1626C79.8946 63.3278 76.2759 63.4055 75.0869 62.2921C74.4924 61.7224 74.4408 61.5153 74.4408 59.1849C74.4408 57.8126 74.3891 56.6215 74.3115 56.5439C74.0789 56.3108 67.8755 58.5117 67.617 58.9001C66.9967 59.9099 65.2649 61.5153 64.231 62.059C63.5848 62.3956 63.0679 62.7581 63.0679 62.8617C63.0679 63.1465 67.2552 65.7358 70.4344 67.393C75.759 70.1376 82.867 72.9599 87.7263 74.2287L90.0268 74.8242L92.0429 72.701C93.1543 71.5358 94.5759 69.8787 95.2221 69.0501C96.2819 67.6778 98.9958 63.4831 98.9958 63.2501C98.9958 63.1983 97.1607 63.0689 94.9378 63.0171C88.7086 62.8099 88.6569 62.7323 88.6569 56.8546V52.9706H85.1674H81.678V57.243Z" fill="black"/>
<path d="M50.4542 60.609C48.955 61.6706 46.0859 62.8099 44.9487 62.8099C44.3542 62.8099 44.38 62.5768 44.8453 66.9527C45.3105 71.4063 46.3186 76.8697 47.3266 80.5983C48.2313 83.9126 47.8436 83.5759 52.0826 84.5599C62.7059 87.0197 75.7588 84.5599 85.219 78.2938C87.5453 76.7402 88.0105 76.2742 87.2609 76.2742C86.7182 76.2742 81.5487 74.617 78.9639 73.6072C73.0707 71.3286 67.3584 68.4027 62.1631 65.0108C60.0177 63.6384 58.9838 63.1206 58.0792 62.9911C56.4766 62.7581 54.6415 61.8001 53.3749 60.5054C52.8321 59.9099 52.2893 59.4438 52.2118 59.4697C52.1343 59.4697 51.3588 59.9876 50.4542 60.609Z" fill="black"/>
</svg>
